<?xml version="1.0" encoding="UTF-8"?><svg xmlns="http://www.w3.org/2000/svg" viewBox="0 0 171.76 446.72"><defs><style>.aj{fill:#1d1d1b;}.ak{opacity:.55;}</style></defs><g id="a"><g id="b"><g id="c"><g id="d"/></g><g id="e"/><g id="f"/><g id="g"/></g><g id="h"/><g id="i"/><g id="j"/><g id="k"/><g id="l" class="ak"/><g id="m"/><g id="n"/><g id="o"/></g><g id="p"/><g id="q"/><g id="r"/><g id="s"/><g id="t"/><g id="u"><g id="v"/><g id="w"/><g id="x"/><g id="y"/><g id="a`"><g id="aa"/></g></g><g id="ab"/><g id="ac"/><g id="ad"/><g id="ae"/><g id="af"/><g id="ag"><g id="ah"><polygon class="aj" points="100.93 306.61 163.25 363.41 170.78 355.15 103.12 293.49 100.93 291.52 98.73 293.49 31.07 355.15 38.6 363.41 100.93 306.61"/><rect class="aj" x="33.22" y="293.19" width="50.03" height="11.18" transform="translate(-125.63 56.18) rotate(-26.13)"/><rect class="aj" x="138.03" y="273.77" width="11.18" height="50.03" transform="translate(-187.88 296.14) rotate(-63.87)"/><path class="aj" d="M161.46,180.87v-11.18h-54.95v-18.88h45.34v-11.18H50v11.18h45.34v18.88H40.39v11.18h54.95v10.37H50.72v65.45h100.42v-65.45h-44.62v-10.37h54.95Zm-21.51,64.64H61.9v-8.32h78.06v8.32Zm0-19.5H61.9v-5.78h78.06v5.78Zm0-23.59v6.63H61.9v-6.63h78.06Z"/><polygon class="aj" points="33.25 291.29 33.25 275.95 170.02 275.95 170.02 264.77 33.25 264.77 33.25 83.56 42.4 97.62 51.77 91.52 33.25 63.06 33.25 47.41 50.53 47.41 50.53 36.23 33.25 36.23 33.25 0 22.07 0 22.07 36.23 0 36.23 0 47.41 21.13 47.41 .49 122.24 11.27 125.21 22.07 86.04 22.07 264.77 6.73 264.77 6.73 275.95 22.07 275.95 22.07 291.29 33.25 291.29"/><polygon class="aj" points="31.16 387.61 79.09 387.61 59.41 427.73 35.85 427.73 35.85 438.91 149.05 438.91 156.17 446.72 164.43 439.19 125.56 396.53 117.3 404.06 138.86 427.73 71.86 427.73 91.54 387.61 170.69 387.61 170.69 376.43 31.16 376.43 31.16 387.61"/><rect class="aj" x="64.82" y="347.03" width="72.22" height="11.18"/><polygon class="aj" points="114.38 133.19 131.8 111.59 149.09 133.04 157.79 126.03 138.95 102.65 151.15 52.78 151.08 52.76 151.08 41.82 112.32 41.82 112.32 53 139.59 53 131.75 85 124.99 57.34 114.13 60 124.58 102.73 105.68 126.17 114.38 133.19"/><polygon class="aj" points="70.22 48.76 81 51.73 82.19 47.41 96.27 47.41 93.4 123.28 70.54 123.28 70.54 134.46 104.37 134.46 107.46 47.41 107.54 47.41 107.54 36.23 85.27 36.23 90.5 17.27 170.02 17.27 170.02 6.09 50.53 6.09 50.53 17.27 78.91 17.27 70.22 48.76"/><path class="aj" d="M54.17,98.08v11.18h.07v10.76h11.18v-10.76h21.48V54.98H54.17v11.18h.07v31.92h-.07Zm11.25-31.92h10.3v31.92h-10.3v-31.92Z"/></g></g><g id="ai"/></svg>