<svg xmlns="http://www.w3.org/2000/svg" viewBox="0 0 530.94 530.96"><defs><style>.cls-1{opacity:0.55;}.cls-2{fill:#c84d47;}</style></defs><g id="Logos-pour_export" data-name="Logos-pour export"><path id="Logo_rouge" data-name="Logo rouge" class="cls-2" d="M265.47,0C118.86,0,0,118.87,0,265.49S118.86,531,265.47,531,530.94,412.1,530.94,265.49,412.09,0,265.47,0Zm-15.59,514.4-.51,0C118.54,506.05,16.05,396.72,16.05,265.49S118.52,24.94,249.33,16.58a8,8,0,1,1,1,16C128,40.38,32.06,142.69,32.06,265.49S128,490.61,250.38,498.42a8,8,0,0,1-.5,16Zm2.44-207.93a8,8,0,1,1-4.89,15.24,59.06,59.06,0,0,1,0-112.45,8,8,0,1,1,4.9,15.24,43.06,43.06,0,0,0,0,82ZM51.44,302.7a8,8,0,0,1,9-6.86C149.7,308,225.11,364.16,257.25,442.53A8,8,0,0,1,252.88,453a7.91,7.91,0,0,1-3,.6,8,8,0,0,1-7.41-5c-30-73.1-100.54-125.55-184.14-136.89A8,8,0,0,1,51.44,302.7Zm6.86-83.53c59.55-8.08,112.83-36.8,150-80.88a8,8,0,0,1,12.24,10.33C180.8,195.73,123.94,226.42,60.45,235a8.11,8.11,0,0,1-1.09.08,8,8,0,0,1-1.06-15.94Zm199.55,48.77a8,8,0,0,1,7.62-10.45h20a8,8,0,0,1,0,16h-9l9.59,29.81a43.07,43.07,0,0,0-7.4-78.8,8,8,0,0,1,4.9-15.24,59.06,59.06,0,0,1,0,112.44,8,8,0,0,1-10.07-5.17Zm53.49-130.6a8,8,0,0,1,11.28,1c37.19,44.07,90.47,72.79,150,80.87a8,8,0,0,1-1.06,15.94,8.11,8.11,0,0,1-1.09-.08c-63.49-8.61-120.35-39.3-160.1-86.41A8,8,0,0,1,311.34,137.34ZM273.71,442.53C305.84,364.16,381.25,308,470.49,295.85a8,8,0,1,1,2.15,15.86C389,323.06,318.49,375.51,288.52,448.6a8,8,0,0,1-7.41,5,7.91,7.91,0,0,1-3-.6A8,8,0,0,1,273.71,442.53Zm7.92,71.86-.52,0a8,8,0,0,1-.51-16C403,490.59,498.88,388.27,498.88,265.49S403,40.38,280.59,32.56a8,8,0,0,1,1-16c130.81,8.36,233.28,117.69,233.28,248.91S412.43,506,281.63,514.39Z"/></g></svg>