<?xml version="1.0" encoding="UTF-8"?><svg xmlns="http://www.w3.org/2000/svg" viewBox="0 0 381.86 497.86"><defs><style>.aj{fill:#fff;}.ak{fill:#c84d47;}.al{opacity:.55;}</style></defs><g id="a"><g id="b"><g id="c"><g id="d"/></g><g id="e"/><g id="f"/><g id="g"/></g><g id="h"/><g id="i"/><g id="j"/><g id="k"/><g id="l" class="al"/><g id="m"/><g id="n"/><g id="o"/></g><g id="p"/><g id="q"/><g id="r"/><g id="s"/><g id="t"/><g id="u"><g id="v"/><g id="w"/><g id="x"/><g id="y"/><g id="a`"><g id="aa"/></g></g><g id="ab"/><g id="ac"/><g id="ad"/><g id="ae"/><g id="af"/><g id="ag"><g><g><g><path class="aj" d="M12.43,497.86c-1.79,0-3.44-.31-4.95-.94-1.51-.62-2.83-1.5-3.95-2.63-1.12-1.13-1.99-2.44-2.6-3.95-.61-1.5-.92-3.14-.92-4.91s.31-3.41,.92-4.91,1.48-2.82,2.6-3.95c1.12-1.13,2.44-2,3.95-2.63,1.51-.62,3.17-.94,4.95-.94,1.52,0,2.93,.22,4.24,.67,1.31,.45,2.47,1.08,3.51,1.88l-.61,.91c-.94-.76-2.01-1.35-3.21-1.75s-2.48-.6-3.84-.6c-1.66,0-3.18,.29-4.56,.87-1.38,.58-2.57,1.38-3.57,2.41-1,1.03-1.78,2.22-2.33,3.59-.55,1.37-.83,2.85-.83,4.43s.28,3.06,.83,4.43c.55,1.37,1.33,2.57,2.33,3.59,1,1.02,2.19,1.83,3.57,2.41,1.38,.58,2.9,.87,4.56,.87,1.35,0,2.63-.2,3.84-.6s2.28-.98,3.21-1.75l.61,.91c-1.03,.79-2.19,1.42-3.5,1.87-1.31,.45-2.73,.68-4.24,.68Z"/><path class="aj" d="M28.13,497.39v-23.94h1.12v22.93h10.62v1h-11.74Z"/><path class="aj" d="M55.91,497.86c-2.65,0-4.64-.76-5.96-2.27-1.32-1.51-1.98-3.78-1.98-6.8v-15.33h1.12v15.22c0,2.66,.58,4.67,1.73,6.03,1.15,1.36,2.85,2.04,5.09,2.04s3.94-.68,5.09-2.04c1.15-1.36,1.73-3.37,1.73-6.03v-15.22h1.12v15.33c0,3.02-.66,5.28-1.98,6.8-1.32,1.51-3.3,2.27-5.95,2.27Z"/><path class="aj" d="M73.13,497.39v-23.94h4.28c2.34,0,4.15,.52,5.44,1.57,1.29,1.05,1.93,2.55,1.93,4.49,0,2.7-1.2,4.52-3.61,5.47,1.83,.23,3.24,.88,4.24,1.94s1.5,2.46,1.5,4.18c0,1.32-.3,2.44-.88,3.38-.59,.94-1.44,1.66-2.54,2.15-1.1,.5-2.43,.75-3.98,.75h-6.37Zm1.12-12.71h3.08c2.06,0,3.64-.44,4.74-1.33,1.1-.89,1.65-2.15,1.65-3.79s-.56-2.93-1.67-3.82-2.69-1.34-4.73-1.34h-3.08v10.28Zm0,11.72h5.12c2.04,0,3.62-.46,4.75-1.39,1.13-.93,1.69-2.23,1.69-3.9s-.56-3.03-1.7-3.97c-1.13-.95-2.71-1.42-4.74-1.42h-5.12v10.69Z"/><path class="aj" d="M104.33,497.39v-23.94h4.88c1.7,0,3.28,.31,4.75,.91,1.46,.61,2.74,1.46,3.84,2.55,1.09,1.09,1.95,2.36,2.56,3.81,.61,1.45,.92,3.02,.92,4.7s-.31,3.26-.91,4.71c-.61,1.45-1.46,2.72-2.56,3.81-1.1,1.09-2.38,1.93-3.84,2.54-1.47,.6-3.05,.91-4.75,.91h-4.88Zm1.12-1h3.71c1.55,0,2.98-.28,4.31-.84,1.33-.56,2.49-1.34,3.49-2.34,1-1,1.78-2.16,2.34-3.49,.56-1.33,.84-2.76,.84-4.3s-.28-2.97-.84-4.29c-.56-1.32-1.34-2.49-2.34-3.49-1.01-1-2.18-1.78-3.5-2.34-1.33-.56-2.76-.84-4.3-.84h-3.71v21.93Z"/><path class="aj" d="M130.44,497.39v-23.94h11.52v1h-10.4v10.44h10.05v.99h-10.05v10.5h10.4v1h-11.52Z"/><path class="aj" d="M170.85,497.86c-1.67,0-3.22-.32-4.66-.97-1.43-.64-2.68-1.53-3.76-2.67-1.07-1.14-1.91-2.45-2.51-3.95s-.9-3.1-.9-4.82c0-1.57,.26-3.09,.78-4.57s1.29-2.81,2.31-4,2.26-2.12,3.74-2.82c1.47-.7,3.16-1.04,5.07-1.04,1.33,0,2.55,.17,3.67,.51,1.12,.34,2.13,.82,3.03,1.41s1.67,1.29,2.32,2.07l-.68,.83c-.94-1.15-2.13-2.08-3.58-2.78-1.45-.7-3.06-1.05-4.82-1.05s-3.17,.31-4.48,.94c-1.31,.63-2.43,1.48-3.36,2.56-.92,1.08-1.62,2.3-2.1,3.66-.47,1.36-.71,2.77-.71,4.24,0,1.59,.27,3.07,.81,4.45,.54,1.38,1.29,2.6,2.25,3.64,.96,1.04,2.09,1.86,3.37,2.44s2.67,.88,4.15,.88c1.21,0,2.39-.2,3.56-.6,1.17-.4,2.22-.99,3.17-1.75,.95-.77,1.7-1.7,2.26-2.78s.83-2.3,.83-3.66v-1.04h-9.92v-.99h11.08v1.49c0,1.8-.33,3.35-.98,4.65-.65,1.3-1.52,2.37-2.59,3.21-1.07,.84-2.25,1.47-3.54,1.87-1.29,.41-2.56,.61-3.82,.61Z"/><path class="aj" d="M201.45,497.86c-1.67,0-3.24-.32-4.7-.96-1.46-.64-2.74-1.53-3.84-2.66s-1.97-2.46-2.59-3.96c-.63-1.5-.94-3.12-.94-4.84s.31-3.35,.94-4.84c.62-1.5,1.49-2.82,2.59-3.95,1.1-1.14,2.38-2.02,3.84-2.66,1.46-.64,3.03-.96,4.7-.96s3.24,.32,4.7,.96c1.46,.64,2.74,1.53,3.84,2.66,1.1,1.14,1.97,2.45,2.59,3.95,.63,1.5,.94,3.11,.94,4.84s-.31,3.34-.94,4.84c-.62,1.5-1.49,2.82-2.59,3.96s-2.38,2.02-3.84,2.66c-1.46,.64-3.03,.96-4.7,.96Zm.01-1.09c1.51,0,2.92-.29,4.23-.87s2.46-1.39,3.45-2.43c.99-1.04,1.77-2.25,2.33-3.62,.56-1.37,.84-2.84,.84-4.41s-.28-3.05-.84-4.42c-.56-1.37-1.34-2.57-2.33-3.61-.99-1.04-2.14-1.85-3.45-2.43s-2.72-.87-4.23-.87-2.92,.29-4.24,.87c-1.32,.58-2.47,1.39-3.47,2.43-.99,1.04-1.77,2.24-2.33,3.61-.56,1.37-.84,2.84-.84,4.42s.28,3.04,.84,4.41c.56,1.37,1.34,2.58,2.33,3.62,.99,1.04,2.15,1.85,3.47,2.43s2.73,.87,4.24,.87Z"/><path class="aj" d="M222.7,497.39v-23.94h4.87c1.7,0,3.29,.31,4.75,.91,1.47,.61,2.74,1.46,3.84,2.55,1.09,1.09,1.95,2.36,2.56,3.81,.61,1.45,.92,3.02,.92,4.7s-.31,3.26-.91,4.71-1.46,2.72-2.56,3.81c-1.1,1.09-2.38,1.93-3.84,2.54-1.46,.6-3.05,.91-4.75,.91h-4.87Zm1.12-1h3.71c1.55,0,2.98-.28,4.31-.84,1.33-.56,2.49-1.34,3.49-2.34,1-1,1.78-2.16,2.34-3.49,.56-1.33,.84-2.76,.84-4.3s-.28-2.97-.83-4.29c-.56-1.32-1.34-2.49-2.34-3.49s-2.17-1.78-3.5-2.34c-1.33-.56-2.76-.84-4.3-.84h-3.71v21.93Z"/><path class="aj" d="M248.81,497.39v-23.94h11.52v1h-10.4v10.44h10.05v.99h-10.05v10.5h10.4v1h-11.52Z"/><path class="aj" d="M269.25,497.39v-23.94h5.37c1.54,0,2.86,.27,3.98,.8,1.11,.53,1.97,1.29,2.57,2.26,.61,.98,.91,2.14,.91,3.5s-.29,2.47-.86,3.46c-.57,.99-1.37,1.78-2.4,2.36-1.03,.58-2.25,.9-3.66,.97l8.02,10.59h-1.43l-7.95-10.55h-3.42v10.55h-1.12Zm1.12-11.58h4.13c1.31,0,2.46-.24,3.43-.72,.97-.48,1.72-1.15,2.26-2.02,.53-.87,.8-1.88,.8-3.05,0-1.74-.58-3.11-1.74-4.12-1.16-1.01-2.74-1.51-4.74-1.51h-4.13v11.42Z"/><path class="aj" d="M298.99,497.39l-10.04-23.94h1.28l9.2,22.25,9.21-22.25h1.28l-10.04,23.94h-.88Z"/><path class="aj" d="M318.37,497.39v-23.94h1.12v23.94h-1.12Z"/><path class="aj" d="M330.02,497.39v-23.94h1.12v22.93h10.62v1h-11.74Z"/><path class="aj" d="M350.18,497.39v-23.94h1.12v22.93h10.62v1h-11.74Z"/><path class="aj" d="M370.34,497.39v-23.94h11.52v1h-10.4v10.44h10.05v.99h-10.05v10.5h10.4v1h-11.52Z"/></g><g><path class="aj" d="M0,383.22v-44.7H4.12v20.48l20.05-20.48h5.2l-21.67,22.13,23.95,22.57h-5.8l-21.73-20.29v20.29H0Z"/><path class="aj" d="M50.71,383.22v-19.37l-15.36-25.33h4.96l12.46,20.94,12.46-20.94h4.98l-15.39,25.33v19.37h-4.12Z"/><path class="aj" d="M103.97,384.09c-3.12,0-6.05-.6-8.78-1.79-2.73-1.19-5.12-2.85-7.18-4.97-2.06-2.12-3.67-4.59-4.84-7.4-1.16-2.81-1.75-5.82-1.75-9.03s.58-6.25,1.75-9.05c1.17-2.8,2.78-5.26,4.84-7.38,2.06-2.12,4.45-3.78,7.18-4.97,2.73-1.19,5.65-1.79,8.78-1.79s6.05,.6,8.78,1.79c2.73,1.19,5.12,2.85,7.18,4.97,2.06,2.12,3.67,4.58,4.84,7.38,1.16,2.8,1.75,5.82,1.75,9.05s-.58,6.23-1.75,9.03c-1.17,2.81-2.78,5.27-4.84,7.4-2.06,2.12-4.45,3.78-7.18,4.97-2.73,1.19-5.65,1.79-8.78,1.79Zm0-3.98c2.55,0,4.91-.49,7.1-1.46s4.1-2.34,5.76-4.09,2.94-3.79,3.86-6.12c.92-2.33,1.38-4.84,1.38-7.53s-.46-5.2-1.38-7.53c-.92-2.33-2.21-4.37-3.86-6.12-1.65-1.75-3.57-3.12-5.76-4.09s-4.55-1.46-7.1-1.46-4.92,.49-7.11,1.48c-2.19,.98-4.11,2.35-5.76,4.09-1.64,1.74-2.93,3.78-3.86,6.11-.93,2.33-1.4,4.84-1.4,7.53s.46,5.2,1.4,7.53c.93,2.33,2.22,4.37,3.86,6.11,1.64,1.74,3.56,3.11,5.76,4.09,2.2,.98,4.56,1.48,7.11,1.48Z"/><path class="aj" d="M142.41,383.22v-44.7h4.12v20.48l20.05-20.48h5.2l-21.67,22.13,23.95,22.57h-5.8l-21.73-20.29v20.29h-4.12Z"/><path class="aj" d="M202.15,384.09c-5.15,0-9.02-1.41-11.61-4.23-2.59-2.82-3.89-7.03-3.89-12.65v-28.69h4.12v27.79c0,4.61,.94,8.04,2.83,10.31,1.89,2.27,4.74,3.4,8.55,3.4s6.63-1.13,8.52-3.4c1.89-2.27,2.83-5.7,2.83-10.31v-27.79h4.14v28.69c0,5.62-1.3,9.83-3.89,12.65-2.59,2.82-6.46,4.23-11.61,4.23Z"/><path class="aj" d="M245.68,384.09c-2.31,0-4.34-.35-6.1-1.04s-3.24-1.54-4.46-2.52c-1.22-.98-2.19-1.95-2.93-2.89-.73-.94-1.24-1.64-1.53-2.11l2.36-3.03c.32,.51,.82,1.19,1.48,2.05,.66,.86,1.5,1.72,2.53,2.6,1.03,.88,2.27,1.62,3.71,2.22,1.44,.61,3.12,.91,5.01,.91s3.45-.32,4.94-.98c1.49-.65,2.69-1.62,3.59-2.9,.9-1.28,1.35-2.87,1.35-4.77,0-1.59-.31-2.94-.93-4.05-.62-1.11-1.49-2.05-2.59-2.83-1.1-.78-2.36-1.47-3.78-2.07-1.42-.6-2.9-1.2-4.46-1.77-1.08-.41-2.22-.91-3.4-1.48-1.18-.57-2.29-1.28-3.32-2.14-1.03-.86-1.86-1.9-2.51-3.13-.64-1.23-.96-2.71-.96-4.44,0-1.63,.31-3.16,.92-4.61,.61-1.45,1.47-2.72,2.57-3.83,1.1-1.11,2.42-1.98,3.96-2.61,1.54-.63,3.23-.95,5.09-.95s3.43,.29,4.93,.88c1.5,.59,2.81,1.33,3.94,2.22,1.13,.89,2,1.82,2.61,2.78l-2.11,2.84c-.5-.83-1.21-1.63-2.11-2.38-.9-.76-1.96-1.38-3.18-1.86-1.22-.48-2.57-.72-4.05-.72-1.84,0-3.41,.4-4.7,1.19-1.29,.79-2.27,1.82-2.94,3.07-.67,1.26-1,2.58-1,3.97,0,1.26,.26,2.34,.79,3.22,.52,.89,1.22,1.63,2.09,2.24,.87,.61,1.82,1.12,2.86,1.56,1.04,.43,2.08,.84,3.13,1.22,1.75,.65,3.44,1.34,5.05,2.07,1.62,.73,3.06,1.6,4.32,2.6s2.27,2.22,3.01,3.66c.74,1.44,1.11,3.17,1.11,5.21,0,2.67-.63,4.95-1.9,6.83-1.26,1.88-2.97,3.31-5.12,4.29-2.15,.98-4.58,1.48-7.29,1.48Z"/><path class="aj" d="M275.62,383.22v-44.7h4.12v20.48h24.41v-20.48h4.09v44.7h-4.09v-20.59h-24.41v20.59h-4.12Z"/><path class="aj" d="M326.87,383.22v-44.7h4.12v44.7h-4.12Z"/><path class="aj" d="M349.62,383.22v-44.7h4.12l24,37.68v-37.68h4.12v44.7h-4.12l-24-37.63v37.63h-4.12Z"/></g><g><path class="aj" d="M0,462.79v-69.35H6.39v31.77l31.1-31.77h8.07l-33.62,34.34,37.15,35.01h-8.99l-33.71-31.48v31.48H0Z"/><path class="aj" d="M62.87,462.79l27.32-69.35h5.93l27.28,69.35h-6.89l-8.45-22.11h-29.8l-8.53,22.11h-6.85Zm17.53-27.74h25.47l-12.73-33.2-12.73,33.2Z"/><path class="aj" d="M145.58,462.79v-69.35h17.99c4.54,0,8.46,.78,11.77,2.35,3.31,1.57,5.86,3.82,7.67,6.75,1.81,2.93,2.71,6.42,2.71,10.49,0,3.73-.76,7.01-2.29,9.86-1.53,2.84-3.69,5.14-6.47,6.89-2.79,1.75-6.1,2.82-9.94,3.21l23.07,29.8h-8.11l-22.11-29.21h-7.9v29.21h-6.39Zm6.39-34.76h10.09c3.53,0,6.57-.6,9.12-1.81,2.55-1.21,4.52-2.92,5.9-5.15,1.39-2.23,2.08-4.85,2.08-7.88,0-4.54-1.51-8.1-4.54-10.68-3.03-2.58-7.21-3.87-12.57-3.87h-10.09v29.38Z"/><path class="aj" d="M203.88,462.79l27.32-69.35h5.93l27.28,69.35h-6.89l-8.45-22.11h-29.8l-8.53,22.11h-6.85Zm17.53-27.74h25.47l-12.73-33.2-12.73,33.2Z"/><path class="aj" d="M297.09,462.79v-63.55h-21.14v-5.8h48.75v5.8h-21.22v63.55h-6.39Z"/><path class="aj" d="M346.94,462.79v-69.35h34.93v5.63h-28.54v26.14h27.53v5.63h-27.53v26.31h28.54v5.63h-34.93Z"/></g></g><path id="ah" class="ak" d="M190.93,0C114.07,0,51.75,62.31,51.75,139.18s62.31,139.18,139.18,139.18,139.18-62.31,139.18-139.18S267.8,0,190.93,0Zm-8.17,269.68c-.09,0-.18,0-.27,0-68.59-4.37-122.32-61.69-122.32-130.49S113.89,13.07,182.47,8.69c2.31-.16,4.31,1.61,4.46,3.92,.15,2.31-1.61,4.31-3.92,4.46-64.17,4.1-114.44,57.74-114.44,122.12s50.28,118.02,114.46,122.12c2.31,.15,4.07,2.14,3.92,4.45-.14,2.22-1.99,3.93-4.18,3.93Zm1.28-109.01c2.21,.71,3.42,3.07,2.71,5.28-.57,1.78-2.22,2.92-3.99,2.92-.42,0-.86-.07-1.28-.2-12.86-4.12-21.49-15.97-21.49-29.48s8.63-25.34,21.47-29.47c2.21-.71,4.57,.51,5.28,2.71,.71,2.21-.5,4.57-2.71,5.28-9.36,3.01-15.65,11.64-15.65,21.48s6.29,18.48,15.66,21.49Zm-105.31-1.98c.31-2.3,2.43-3.91,4.72-3.59,46.79,6.35,86.33,35.81,103.18,76.9,.88,2.14-.15,4.6-2.29,5.47-.52,.21-1.06,.32-1.59,.32-1.65,0-3.22-.98-3.88-2.61-15.71-38.32-52.71-65.82-96.54-71.77-2.3-.31-3.91-2.43-3.59-4.72Zm3.59-43.79c31.22-4.24,59.15-19.29,78.65-42.4,1.49-1.77,4.14-1.99,5.91-.5,1.77,1.5,2,4.14,.5,5.91-20.84,24.7-50.65,40.79-83.94,45.3-.19,.03-.38,.04-.57,.04-2.07,0-3.87-1.53-4.15-3.63-.31-2.3,1.3-4.41,3.59-4.72Zm104.62,25.57c-.41-1.28-.19-2.67,.6-3.76s2.05-1.73,3.39-1.73h10.48c2.32,0,4.2,1.88,4.2,4.2s-1.88,4.2-4.2,4.2h-4.72l5.03,15.63c7.18-3.89,11.77-11.42,11.77-19.83,0-9.84-6.29-18.48-15.65-21.48-2.21-.71-3.42-3.07-2.71-5.28,.71-2.21,3.07-3.42,5.28-2.71,12.85,4.13,21.48,15.97,21.48,29.47s-8.63,25.34-21.47,29.47c-.43,.14-.86,.2-1.29,.2-1.77,0-3.42-1.13-3.99-2.91l-8.2-25.48Zm28.04-68.47c1.77-1.5,4.42-1.27,5.91,.5,19.5,23.11,47.43,38.16,78.65,42.4,2.3,.31,3.91,2.43,3.59,4.72-.29,2.1-2.09,3.63-4.15,3.63-.19,0-.38-.01-.57-.04-33.29-4.52-63.1-20.6-83.94-45.3-1.49-1.77-1.27-4.42,.5-5.91Zm-19.73,160c16.85-41.08,56.38-70.55,103.17-76.9,2.3-.32,4.41,1.3,4.72,3.59,.31,2.3-1.3,4.41-3.59,4.72-43.83,5.95-80.82,33.45-96.53,71.77-.67,1.62-2.23,2.61-3.88,2.61-.53,0-1.07-.1-1.59-.32-2.14-.88-3.17-3.33-2.29-5.47Zm4.15,37.68c-.09,0-.18,0-.27,0-2.2,0-4.04-1.71-4.18-3.93-.15-2.31,1.61-4.31,3.92-4.46,64.17-4.1,114.44-57.74,114.44-122.12S263.03,21.16,198.85,17.06c-2.31-.15-4.07-2.14-3.92-4.46s2.14-4.08,4.46-3.92c68.58,4.38,122.3,61.7,122.3,130.49s-53.72,126.11-122.29,130.49Z"/></g></g><g id="ai"/></svg>