<svg xmlns="http://www.w3.org/2000/svg" width="80.414" height="35.764" viewBox="0 0 80.414 35.764">
  <g id="Bouton_haut" data-name="Bouton haut" transform="translate(-1812.74 -2071.635)">
    <path id="Tracé_32" data-name="Tracé 32" d="M1827.066,2085.3a38.277,38.277,0,0,0,12.634,16.115,41.449,41.449,0,0,0,19.438,7.89" transform="translate(28.629 -7.297)" fill="none" stroke="#fff" stroke-linecap="round" stroke-width="10"/>
    <path id="Tracé_31" data-name="Tracé 31" d="M1859.138,2085.3a38.276,38.276,0,0,1-12.633,16.115,41.451,41.451,0,0,1-19.439,7.89" transform="translate(-8.941 -7.297)" fill="none" stroke="#fff" stroke-linecap="round" stroke-width="10"/>
    <path id="Tracé_26" data-name="Tracé 26" d="M1827.066,2085.3a38.277,38.277,0,0,0,12.634,16.115,41.449,41.449,0,0,0,19.438,7.89" transform="translate(28.63 -7.297)" fill="none" stroke="#4b4b4b" stroke-linecap="round" stroke-width="4"/>
    <path id="Tracé_29" data-name="Tracé 29" d="M1859.138,2085.3a38.276,38.276,0,0,1-12.633,16.115,41.451,41.451,0,0,1-19.439,7.89" transform="translate(-8.941 -7.297)" fill="none" stroke="#4b4b4b" stroke-linecap="round" stroke-width="4"/>
  </g>
</svg>
